<svg xmlns="http://www.w3.org/2000/svg" viewBox="0 0 64 64" width="64" height="64" fill="none">
  <defs>
    <linearGradient id="gRed" x1="12" y1="8" x2="56" y2="44" gradientUnits="userSpaceOnUse">
      <stop stop-color="#e74c3c"/>
      <stop offset="1" stop-color="#c0392b"/>
    </linearGradient>
  </defs>
  <path d="M18 10c2 0 4 2 5 4 1 3 2 5 6 7 7 3 15 2 21 8 3 3 4 7 3 11-1 5-5 10-10 12-7 3-18 3-26-5S5 26 10 18c2-3 5-5 8-6z" fill="url(#gRed)"/>
  <path d="M18 10c1-3 4-6 8-6 2 0 3 2 2 3-1 1-4 1-6 3-1 1-2 2-4 3 0-1 0-2 0-3z" fill="#7f2b22"/>
</svg>
